<?xml version="1.0" encoding="utf-8"?>
<!-- Generator: Adobe Illustrator 22.1.0, SVG Export Plug-In . SVG Version: 6.00 Build 0)  -->
<svg version="1.1" id="Layer_1" xmlns="http://www.w3.org/2000/svg" xmlns:xlink="http://www.w3.org/1999/xlink" x="0px" y="0px"
	 viewBox="0 0 2164 240" style="enable-background:new 0 0 2164 240;" xml:space="preserve">
<style type="text/css">
	.st0{fill:#4F46E5;}
	.st1{fill:#FFFFFF;}
	.st2{fill:#606060;}
</style>
<g>
	
		<ellipse transform="matrix(6.628469e-03 -1 1 6.628469e-03 315.077 563.8995)" class="st0" cx="441.4" cy="123.4" rx="86.4" ry="83.3"/>
</g>
<path class="st1" d="M355.2,123.4c0-46.3,37.5-77.9,86.1-77.9s86.1,31.6,86.1,77.9s-37.5,77.9-86.1,77.9S355.2,169.7,355.2,123.4z
	 M479.1,123.4c0-21-14.8-37.7-37.7-37.7s-37.7,16.7-37.7,37.7s14.8,37.7,37.7,37.7C464.1,161.2,479.1,144.4,479.1,123.4z"/>
<g>
	<g>
		<path class="st0" d="M52.3,123.8c0-51.9,40-83.7,89.1-83.7c38.5,0,60.9,21.4,71.1,42.2l-41.2,21.2c-4.6-9.9-15.3-20.1-29.9-20.1
			c-23.5,0-39.3,18-39.3,40.5s15.8,40.5,39.3,40.5c9.2,0,20.1-3.4,25.2-7.3v-5.8h-30v-42.7h78.9v66.2c-18.1,19.9-42.3,32.7-74,32.7
			C92.4,207.5,52.3,175.5,52.3,123.8z"/>
		<path class="st0" d="M237.2,204.6V42.8h49v119.1h61.4v42.7L237.2,204.6L237.2,204.6z"/>
		<path class="st0" d="M666.9,204.6L646,112.9l-20.9,91.7h-51.5L527.3,42.8h55l20.9,99l24.6-99h36.9l24.6,99l20.7-99H765
			l-46.4,161.8H666.9z"/>
		<path class="st0" d="M864,204.6l-22.3-51H824v51h-49V42.8h86.4c37.8,0,58.2,25.2,58.2,55.6c0,28-16.2,42.7-29.1,49l29.3,57.3H864z
			 M869.7,98.1c0-8.8-7.7-12.7-16.1-12.7h-29.9v25.4h29.9C862,110.9,869.7,107,869.7,98.1z"/>
		<path class="st0" d="M939.4,204.6V42.8h122.7v42.7h-73.8v16h72.1v42.7h-72.1v17.7h73.8v42.7H939.4z"/>
		<path class="st0" d="M1071.6,181.8l25.4-36.5c12.2,11.6,30.3,20.9,52.2,20.9c9.2,0,18-2.4,18-8.8c0-15.5-90.3,0.3-90.3-63.5
			c0-27.4,22.8-53.6,67.3-53.6c26.5,0,50.3,7.6,68.7,22.6l-26.2,34.7c-14.1-10.7-32.3-16.1-47.6-16.1c-9.6,0-12.4,3.1-12.4,7.3
			c0,15.3,90,2.2,90,62.3c0,35.7-26.5,56.3-69.9,56.3C1112.3,207.5,1088.8,197.3,1071.6,181.8z"/>
	</g>
	<g>
		<path class="st0" d="M52.3,123.8c0-51.9,40-83.7,89.1-83.7c38.5,0,60.9,21.4,71.1,42.2l-41.2,21.2c-4.6-9.9-15.3-20.1-29.9-20.1
			c-23.5,0-39.3,18-39.3,40.5s15.8,40.5,39.3,40.5c9.2,0,20.1-3.4,25.2-7.3v-5.8h-30v-42.7h78.9v66.2c-18.1,19.9-42.3,32.7-74,32.7
			C92.4,207.5,52.3,175.5,52.3,123.8z"/>
		<path class="st0" d="M237.2,204.6V42.8h49v119.1h61.4v42.7L237.2,204.6L237.2,204.6z"/>
		<path class="st0" d="M666.9,204.6L646,112.9l-20.9,91.7h-51.5L527.3,42.8h55l20.9,99l24.6-99h36.9l24.6,99l20.7-99H765
			l-46.4,161.8H666.9z"/>
		<path class="st0" d="M864,204.6l-22.3-51H824v51h-49V42.8h86.4c37.8,0,58.2,25.2,58.2,55.6c0,28-16.2,42.7-29.1,49l29.3,57.3H864z
			 M869.7,98.1c0-8.8-7.7-12.7-16.1-12.7h-29.9v25.4h29.9C862,110.9,869.7,107,869.7,98.1z"/>
		<path class="st0" d="M939.4,204.6V42.8h122.7v42.7h-73.8v16h72.1v42.7h-72.1v17.7h73.8v42.7H939.4z"/>
		<path class="st0" d="M1071.6,181.8l25.4-36.5c12.2,11.6,30.3,20.9,52.2,20.9c9.2,0,18-2.4,18-8.8c0-15.5-90.3,0.3-90.3-63.5
			c0-27.4,22.8-53.6,67.3-53.6c26.5,0,50.3,7.6,68.7,22.6l-26.2,34.7c-14.1-10.7-32.3-16.1-47.6-16.1c-9.6,0-12.4,3.1-12.4,7.3
			c0,15.3,90,2.2,90,62.3c0,35.7-26.5,56.3-69.9,56.3C1112.3,207.5,1088.8,197.3,1071.6,181.8z"/>
	</g>
</g>
<g>
	<path class="st2" d="M1358.3,151.8v55.5h-39.5V43.7h65.3c12.5,0,23.6,2.3,33.2,6.9c9.6,4.6,17.1,11.2,22.4,19.7
		c5.3,8.5,7.9,18.2,7.9,28.9c0,16-5.7,28.7-17.1,38.3c-11.4,9.6-27.1,14.3-47,14.3H1358.3z M1358.3,121.4h25.9
		c7.6,0,13.5-1.9,17.5-5.7c4-3.8,6-9.2,6-16.2c0-7.6-2.1-13.8-6.2-18.3c-4.1-4.6-9.7-6.9-16.9-7h-26.3V121.4z"/>
	<path class="st2" d="M1595.7,128.9c0,16-3,30.1-8.9,42.4c-5.9,12.3-14.3,21.8-25.2,28.4c-10.9,6.6-23.3,9.9-37.3,9.9
		c-13.9,0-26.3-3.2-37.1-9.6s-19.2-15.6-25.2-27.5c-6-11.9-9.2-25.6-9.5-41v-9.2c0-16,2.9-30.2,8.8-42.4
		c5.9-12.3,14.3-21.7,25.3-28.4c11-6.7,23.5-10,37.5-10c13.9,0,26.2,3.3,37.1,9.9c10.9,6.6,19.3,16,25.4,28.2
		c6,12.2,9.1,26.1,9.2,41.9V128.9z M1555.6,122.1c0-16.3-2.7-28.6-8.2-37c-5.4-8.4-13.2-12.6-23.3-12.6c-19.8,0-30.2,14.8-31.4,44.5
		l-0.1,12c0,16,2.7,28.4,8,37c5.3,8.6,13.2,12.9,23.7,12.9c10,0,17.6-4.2,23-12.7c5.4-8.5,8.1-20.6,8.2-36.5V122.1z"/>
	<path class="st2" d="M1645,151.8v55.5h-39.5V43.7h65.3c12.5,0,23.6,2.3,33.2,6.9c9.6,4.6,17.1,11.2,22.4,19.7
		c5.3,8.5,7.9,18.2,7.9,28.9c0,16-5.7,28.7-17.1,38.3c-11.4,9.6-27.1,14.3-47,14.3H1645z M1645,121.4h25.9c7.6,0,13.5-1.9,17.5-5.7
		c4-3.8,6-9.2,6-16.2c0-7.6-2.1-13.8-6.2-18.3c-4.1-4.6-9.7-6.9-16.9-7H1645V121.4z"/>
	<path class="st2" d="M1783.4,151.8v55.5h-39.5V43.7h65.3c12.5,0,23.6,2.3,33.2,6.9c9.6,4.6,17.1,11.2,22.4,19.7
		c5.3,8.5,7.9,18.2,7.9,28.9c0,16-5.7,28.7-17.1,38.3c-11.4,9.6-27.1,14.3-47,14.3H1783.4z M1783.4,121.4h25.9
		c7.6,0,13.5-1.9,17.5-5.7c4-3.8,6-9.2,6-16.2c0-7.6-2.1-13.8-6.2-18.3c-4.1-4.6-9.7-6.9-16.9-7h-26.3V121.4z"/>
	<path class="st2" d="M1983.8,137.9h-62.1V177h73.3v30.4h-112.8V43.7h113v30.5h-73.5v34.5h62.1V137.9z"/>
	<path class="st2" d="M2068.4,149.5H2047v57.9h-39.5V43.7h64.4c19.4,0,34.6,4.3,45.5,12.9c10.9,8.6,16.4,20.8,16.4,36.5
		c0,11.4-2.3,20.8-6.9,28.3c-4.6,7.5-11.8,13.6-21.6,18.2l34.2,66.1v1.7h-42.3L2068.4,149.5z M2047,119.1h25c7.5,0,13.1-2,16.9-5.9
		c3.8-3.9,5.7-9.4,5.7-16.5c0-7.1-1.9-12.6-5.7-16.6s-9.4-6-16.9-6h-25V119.1z"/>
</g>
</svg>
