<?xml version="1.0" encoding="utf-8"?>
<!-- Generator: Adobe Illustrator 22.1.0, SVG Export Plug-In . SVG Version: 6.00 Build 0)  -->
<svg version="1.1" id="Layer_1" xmlns="http://www.w3.org/2000/svg" xmlns:xlink="http://www.w3.org/1999/xlink" x="0px" y="0px"
	 viewBox="0 0 2047.4 222" style="enable-background:new 0 0 2047.4 222;" xml:space="preserve">
<style type="text/css">
	.st0{fill:#4F46E5;}
	.st1{fill:#FFFFFF;}
	.st2{fill:#606060;}
</style>
<g>
	
		<ellipse transform="matrix(6.628323e-03 -1 1 6.628323e-03 352.2912 578.8212)" class="st0" cx="467.5" cy="112.1" rx="99.5" ry="96"/>
</g>
<path class="st1" d="M368.2,112.2c0-53.3,43.2-89.7,99.2-89.7s99.2,36.4,99.2,89.7s-43.2,89.7-99.2,89.7S368.2,165.5,368.2,112.2z
	 M510.9,112.2c0-24.2-17.1-43.4-43.4-43.4s-43.4,19.2-43.4,43.4s17.1,43.4,43.4,43.4C493.7,155.7,510.9,136.3,510.9,112.2z"/>
<g>
	<g>
		<path class="st0" d="M19.3,112.6c0-59.8,46.1-96.4,102.6-96.4c44.4,0,70.1,24.6,81.9,48.6l-47.5,24.4C151,77.8,138.7,66,121.9,66
			c-27.1,0-45.3,20.7-45.3,46.6s18.2,46.6,45.3,46.6c10.6,0,23.2-3.9,29-8.4v-6.7h-34.6V94.9h90.9v76.3
			c-20.8,22.9-48.7,37.7-85.3,37.7C65.5,209,19.3,172.2,19.3,112.6z"/>
		<path class="st0" d="M232.3,205.7V19.3h56.4v137.2h70.7v49.2L232.3,205.7L232.3,205.7z"/>
		<path class="st0" d="M727.3,205.7l-24.1-105.6l-24.1,105.6h-59.3L566.5,19.3h63.3l24.1,114l28.3-114h42.5l28.3,114l23.8-114h63.5
			l-53.4,186.4H727.3z"/>
		<path class="st0" d="M954.3,205.7L928.6,147h-20.4v58.7h-56.4V19.3h99.5c43.6,0,67.1,29,67.1,64c0,32.2-18.7,49.2-33.5,56.4
			l33.8,66H954.3z M960.9,83c0-10.1-8.9-14.6-18.5-14.6H908v29.3h34.4C952,97.8,960.9,93.3,960.9,83z"/>
		<path class="st0" d="M1041.2,205.7V19.3h141.4v49.2h-85v18.4h83v49.2h-83v20.4h85v49.2H1041.2z"/>
		<path class="st0" d="M1193.5,179.4l29.3-42c14,13.4,34.9,24.1,60.1,24.1c10.6,0,20.7-2.8,20.7-10.1c0-17.9-104,0.3-104-73.2
			c0-31.6,26.3-61.8,77.5-61.8c30.5,0,57.9,8.7,79.1,26l-30.2,40c-16.2-12.3-37.2-18.5-54.8-18.5c-11.1,0-14.3,3.6-14.3,8.4
			c0,17.6,103.7,2.5,103.7,71.8c0,41.1-30.5,64.8-80.5,64.8C1240.4,209,1213.3,197.3,1193.5,179.4z"/>
	</g>
	<g>
		<path class="st0" d="M19.3,112.6c0-59.8,46.1-96.4,102.6-96.4c44.4,0,70.1,24.6,81.9,48.6l-47.5,24.4C151,77.8,138.7,66,121.9,66
			c-27.1,0-45.3,20.7-45.3,46.6s18.2,46.6,45.3,46.6c10.6,0,23.2-3.9,29-8.4v-6.7h-34.6V94.9h90.9v76.3
			c-20.8,22.9-48.7,37.7-85.3,37.7C65.5,209,19.3,172.2,19.3,112.6z"/>
		<path class="st0" d="M232.3,205.7V19.3h56.4v137.2h70.7v49.2L232.3,205.7L232.3,205.7z"/>
		<path class="st0" d="M727.3,205.7l-24.1-105.6l-24.1,105.6h-59.3L566.5,19.3h63.3l24.1,114l28.3-114h42.5l28.3,114l23.8-114h63.5
			l-53.4,186.4H727.3z"/>
		<path class="st0" d="M954.3,205.7L928.6,147h-20.4v58.7h-56.4V19.3h99.5c43.6,0,67.1,29,67.1,64c0,32.2-18.7,49.2-33.5,56.4
			l33.8,66H954.3z M960.9,83c0-10.1-8.9-14.6-18.5-14.6H908v29.3h34.4C952,97.8,960.9,93.3,960.9,83z"/>
		<path class="st0" d="M1041.2,205.7V19.3h141.4v49.2h-85v18.4h83v49.2h-83v20.4h85v49.2H1041.2z"/>
		<path class="st0" d="M1193.5,179.4l29.3-42c14,13.4,34.9,24.1,60.1,24.1c10.6,0,20.7-2.8,20.7-10.1c0-17.9-104,0.3-104-73.2
			c0-31.6,26.3-61.8,77.5-61.8c30.5,0,57.9,8.7,79.1,26l-30.2,40c-16.2-12.3-37.2-18.5-54.8-18.5c-11.1,0-14.3,3.6-14.3,8.4
			c0,17.6,103.7,2.5,103.7,71.8c0,41.1-30.5,64.8-80.5,64.8C1240.4,209,1213.3,197.3,1193.5,179.4z"/>
	</g>
</g>
<g>
	<path class="st2" d="M1426.2,208.2V15.4h126.3v21.4h-102.3V99h100.3v21.4h-100.3v87.8H1426.2z"/>
	<path class="st2" d="M1564.9,208.2V15.4h24v192.7H1564.9z"/>
	<path class="st2" d="M1613.7,208.2V15.4h24v171.3h89.6v21.4H1613.7z"/>
	<path class="st2" d="M1740.8,208.2V15.4h126.3v21.4h-102.3V99h100.3v21.4h-100.3v66.5h102.3v21.4H1740.8z"/>
	<path class="st2" d="M1996.5,208.2l-49.1-76.6H1909v76.6h-24V15.4h77.4c35.3,0,60.4,22.5,60.4,58.1c0,34.7-23.7,53.7-50,56.1
		l52,78.6H1996.5z M1998,73.5c0-21.7-15.6-36.7-38.4-36.7H1909v73.7h50.6C1982.4,110.5,1998,95.2,1998,73.5z"/>
</g>
</svg>
